<svg width="40" height="40" viewBox="0 0 40 40" fill="none" xmlns="http://www.w3.org/2000/svg">
<g clip-path="url(#clip0_1104_88)">
<path d="M12.5034 0H16.8001V1.79667H14.3001V3.59333H16.8001V5.39H12.5034V0ZM17.6584 0H21.9568V1.56333H19.4568V1.875H21.9568V5.46833H17.6584V3.82833H20.1584V3.515H17.6584V0ZM22.8168 0H27.1118V1.56333H24.6118V1.875H27.1118V5.46833H22.8168V3.82833H25.3168V3.515H22.8168V0Z" fill="#0067AF"/>
<path fill-rule="evenodd" clip-rule="evenodd" d="M19.985 40L8.41167 36.7867L5 7.86169H35L31.59 36.7834L19.985 40ZM11.745 20.955L12.0633 24.5017H24.3583L23.9467 29.1017L19.99 30.1717H19.9867L16.0367 29.105L15.7833 26.2767H12.2217L12.7183 31.8467L19.985 33.8634L27.2633 31.8467L28.15 21.9067L28.2367 20.955L28.8767 13.7734H11.1067L11.43 17.3217H24.99L24.6667 20.955H11.745V20.955Z" fill="#0067AF"/>
</g>
<defs>
<clipPath id="clip0_1104_88">
<rect width="40" height="40" fill="white"/>
</clipPath>
</defs>
</svg>
