<svg width="40" height="40" viewBox="0 0 40 40" fill="none" xmlns="http://www.w3.org/2000/svg">
<g clip-path="url(#clip0_1104_110)">
<path fill-rule="evenodd" clip-rule="evenodd" d="M20.9841 0.432012C20.8591 0.295385 20.7071 0.186271 20.5377 0.111619C20.3683 0.0369667 20.1852 -0.00158691 20.0001 -0.00158691C19.8149 -0.00158691 19.6318 0.0369667 19.4624 0.111619C19.293 0.186271 19.141 0.295385 19.0161 0.432012L12.0027 8.08535C9.65229 10.6487 8.28925 13.9639 8.15687 17.4393C8.0245 20.9146 9.13142 24.3239 11.2801 27.0587L18.6667 36.4613V40H21.3334V36.4613L28.7201 27.0587C30.8684 24.3244 31.9753 20.9159 31.8434 17.4411C31.7116 13.9664 30.3494 10.6515 28.0001 8.08801L20.9841 0.434679V0.432012ZM21.3334 8.00001C21.3334 7.64639 21.1929 7.30725 20.9429 7.0572C20.6928 6.80715 20.3537 6.66668 20.0001 6.66668C19.6464 6.66668 19.3073 6.80715 19.0573 7.0572C18.8072 7.30725 18.6667 7.64639 18.6667 8.00001V28C18.6667 28.3536 18.8072 28.6928 19.0573 28.9428C19.3073 29.1929 19.6464 29.3333 20.0001 29.3333C20.3537 29.3333 20.6928 29.1929 20.9429 28.9428C21.1929 28.6928 21.3334 28.3536 21.3334 28V8.00001Z" fill="#548E33"/>
</g>
<defs>
<clipPath id="clip0_1104_110">
<rect width="40" height="40" fill="white"/>
</clipPath>
</defs>
</svg>
