<svg width="41" height="40" viewBox="0 0 41 40" fill="none" xmlns="http://www.w3.org/2000/svg">
<g clip-path="url(#clip0_1104_103)">
<path fill-rule="evenodd" clip-rule="evenodd" d="M9.30418 3.33331C7.02085 3.33331 5.33252 5.33165 5.40918 7.49665C5.48085 9.57998 5.38752 12.275 4.70918 14.4733C4.02585 16.6766 2.87585 18.0733 0.99585 18.2533V20.2783C2.87585 20.4566 4.02752 21.8533 4.70752 24.0583C5.38752 26.2566 5.48085 28.9516 5.40752 31.0333C5.33252 33.2 7.02085 35.1983 9.30418 35.1983H32.6908C34.9742 35.1983 36.6625 33.2 36.5858 31.0333C36.5142 28.9516 36.6075 26.2566 37.2858 24.0583C37.9675 21.8533 39.1158 20.4583 40.9958 20.2783V18.2533C39.1158 18.0733 37.9675 16.6766 37.2858 14.4733C36.6075 12.2733 36.5142 9.57831 36.5858 7.49665C36.6625 5.32998 34.9725 3.33331 32.6908 3.33331H9.30418ZM28.1125 22.9483C28.1125 25.9316 25.8875 27.74 22.1958 27.74H15.9108C15.7309 27.74 15.5584 27.6685 15.4312 27.5413C15.304 27.4141 15.2325 27.2416 15.2325 27.0616V11.4683C15.233 11.2887 15.3046 11.1166 15.4318 10.9897C15.5589 10.8629 15.7312 10.7916 15.9108 10.7916H22.1608C25.2392 10.7916 27.2608 12.4583 27.2608 15.02C27.2608 16.8166 25.9008 18.425 24.1692 18.7083V18.8016C26.5275 19.06 28.1142 20.6933 28.1142 22.9483H28.1125ZM21.5125 12.94H17.9292V18.0033H20.9475C23.2808 18.0033 24.5675 17.0633 24.5675 15.3833C24.5675 13.81 23.4608 12.94 21.5125 12.94ZM17.9292 20.0116V25.59H21.6458C24.0742 25.59 25.3625 24.615 25.3625 22.7833C25.3625 20.95 24.0392 20.0116 21.4892 20.0116H17.9292V20.0116Z" fill="#7910E8"/>
</g>
<defs>
<clipPath id="clip0_1104_103">
<rect width="40" height="40" fill="white" transform="translate(0.99585)"/>
</clipPath>
</defs>
</svg>
