<svg width="27" height="40" viewBox="0 0 27 40" fill="none" xmlns="http://www.w3.org/2000/svg">
<path d="M6.66675 40C10.3468 40 13.3335 37.0133 13.3335 33.3333V26.6666H6.66675C2.9867 26.6666 0 29.6533 0 33.3333C0 37.0133 2.9867 40 6.66675 40Z" fill="#0ACF83"/>
<path d="M0 20C0 16.32 2.9867 13.3334 6.66675 13.3334H13.3335V26.6667H6.66675C2.9867 26.6667 0 23.68 0 20Z" fill="#A259FF"/>
<path d="M0 6.66667C0 2.98667 2.9867 0 6.66675 0H13.3335V13.3333H6.66675C2.9867 13.3333 0 10.3467 0 6.66667Z" fill="#F24E1E"/>
<path d="M13.3335 0H20.0002C23.6803 0 26.667 2.98667 26.667 6.66667C26.667 10.3467 23.6803 13.3333 20.0002 13.3333H13.3335V0Z" fill="#FF7262"/>
<path d="M26.667 20C26.667 23.68 23.6803 26.6667 20.0002 26.6667C16.3202 26.6667 13.3335 23.68 13.3335 20C13.3335 16.32 16.3202 13.3334 20.0002 13.3334C23.6803 13.3334 26.667 16.32 26.667 20Z" fill="#1ABCFE"/>
</svg>
