<svg width="24" height="24" viewBox="0 0 24 24" fill="none" xmlns="http://www.w3.org/2000/svg">
<g clip-path="url(#clip0_1104_99)">
<path d="M20.229 15.793C20.3302 15.7348 20.4144 15.651 20.473 15.55C20.5317 15.4488 20.5628 15.334 20.563 15.217L20.575 11.359C20.5752 11.242 20.6063 11.1272 20.665 11.026C20.7239 10.9249 20.8084 10.8411 20.91 10.783L23 9.58002C23.1014 9.52204 23.2162 9.49169 23.333 9.49202C23.45 9.4923 23.5648 9.52334 23.666 9.58202C23.7672 9.64026 23.8513 9.72406 23.91 9.82502C23.9684 9.92628 23.9991 10.0411 23.999 10.158V17.172C23.9989 17.2893 23.9679 17.4045 23.9091 17.506C23.8503 17.6075 23.7657 17.6916 23.664 17.75L15.771 22.284C15.6702 22.3417 15.5561 22.3721 15.44 22.3721C15.3239 22.3721 15.2098 22.3417 15.109 22.284L8.915 18.742C8.81294 18.6838 8.72808 18.5996 8.669 18.498C8.60998 18.3962 8.57893 18.2807 8.579 18.163V14.626C8.579 14.622 8.583 14.62 8.587 14.622C8.591 14.624 8.595 14.622 8.595 14.617V14.613C8.595 14.61 8.597 14.608 8.599 14.606L13.701 11.676C13.705 11.673 13.703 11.666 13.698 11.666C13.6972 11.666 13.6965 11.6658 13.6958 11.6655C13.6951 11.6651 13.6945 11.6646 13.694 11.664C13.6936 11.6635 13.6932 11.6628 13.6931 11.6621C13.6929 11.6614 13.6929 11.6607 13.693 11.66L13.703 8.19302C13.7035 8.07558 13.6729 7.96011 13.6144 7.85827C13.556 7.75642 13.4717 7.67182 13.37 7.61302C13.2686 7.55448 13.1536 7.52366 13.0365 7.52366C12.9194 7.52366 12.8044 7.55448 12.703 7.61302L8.912 9.79902C8.81084 9.85719 8.69619 9.8878 8.5795 9.8878C8.46281 9.8878 8.34816 9.85719 8.247 9.79902L4.443 7.60902C4.34169 7.55088 4.22689 7.52036 4.11008 7.52052C3.99327 7.52068 3.87855 7.55152 3.7774 7.60994C3.67625 7.66836 3.59222 7.75232 3.53371 7.85342C3.4752 7.95452 3.44426 8.06921 3.444 8.18602V14.453C3.44404 14.5698 3.4134 14.6846 3.35513 14.7859C3.29687 14.8872 3.21303 14.9713 3.112 15.03C3.01113 15.0886 2.89664 15.1196 2.78 15.12C2.66321 15.1203 2.54838 15.09 2.447 15.032L0.336001 13.825C0.233939 13.7668 0.149076 13.6826 0.0900015 13.581C0.0308111 13.4789 -0.000245003 13.363 1.45555e-06 13.245L0.0190015 2.29202C0.0193641 2.17536 0.0503193 2.06083 0.108777 1.95987C0.167235 1.85891 0.251151 1.77505 0.352149 1.71665C0.453147 1.65826 0.567694 1.62738 0.684357 1.62709C0.80102 1.62681 0.915717 1.65712 1.017 1.71502L8.247 5.86802C8.34816 5.92619 8.46281 5.9568 8.5795 5.9568C8.69619 5.9568 8.81084 5.92619 8.912 5.86802L16.14 1.71502C16.2414 1.65699 16.3562 1.62664 16.473 1.62702C16.59 1.62725 16.7048 1.65829 16.806 1.71702C16.9073 1.77554 16.9915 1.85969 17.05 1.96102C17.108 2.0624 17.1383 2.17723 17.138 2.29402V13.25C17.138 13.367 17.108 13.482 17.049 13.584C16.9902 13.6855 16.9057 13.7696 16.804 13.828L13.019 16.008C12.9172 16.0667 12.8327 16.1512 12.774 16.253C12.7155 16.3546 12.6848 16.4698 12.685 16.587C12.6851 16.7043 12.7162 16.8195 12.775 16.921C12.8343 17.0228 12.9195 17.107 13.022 17.165L15.11 18.354C15.2106 18.411 15.3243 18.441 15.44 18.441C15.5565 18.4409 15.671 18.4102 15.772 18.352L20.229 15.792V15.793ZM20.667 5.96502C20.6669 6.08267 20.6979 6.19826 20.757 6.30002C20.8166 6.40189 20.9022 6.48609 21.005 6.54402C21.1075 6.60191 21.2234 6.63166 21.3411 6.63025C21.4588 6.62885 21.574 6.59634 21.675 6.53602L23.676 5.33602C23.7747 5.27685 23.8563 5.19313 23.913 5.09302C23.97 4.99272 23.9999 4.87936 24 4.76402V2.32002C23.9998 2.20228 23.9684 2.0867 23.909 1.98502C23.8495 1.88333 23.7641 1.79923 23.6615 1.74126C23.5589 1.6833 23.4428 1.65354 23.325 1.65502C23.2073 1.65634 23.0921 1.68877 22.991 1.74902L20.991 2.94902C20.892 3.00805 20.81 3.09178 20.753 3.19202C20.6964 3.29243 20.6668 3.40577 20.667 3.52102V5.96602V5.96502Z" fill="black"/>
</g>
<defs>
<clipPath id="clip0_1104_99">
<rect width="24" height="24" fill="white"/>
</clipPath>
</defs>
</svg>
