<svg width="24" height="24" viewBox="0 0 24 24" fill="none" xmlns="http://www.w3.org/2000/svg">
<g clip-path="url(#clip0_1104_110)">
<path fill-rule="evenodd" clip-rule="evenodd" d="M12.5904 0.259183C12.5154 0.177206 12.4242 0.111738 12.3226 0.0669468C12.2209 0.0221556 12.1111 -0.000976562 12 -0.000976562C11.8889 -0.000976562 11.7791 0.0221556 11.6774 0.0669468C11.5758 0.111738 11.4845 0.177206 11.4096 0.259183L7.20159 4.85118C5.79133 6.38921 4.9735 8.37835 4.89408 10.4636C4.81465 12.5488 5.47881 14.5943 6.76799 16.2352L11.2 21.8768V24H12.8V21.8768L17.232 16.2352C18.521 14.5946 19.1851 12.5495 19.106 10.4647C19.0269 8.37982 18.2096 6.3909 16.8 4.85278L12.5904 0.260783V0.259183ZM12.8 4.79998C12.8 4.58781 12.7157 4.38433 12.5657 4.2343C12.4156 4.08427 12.2122 3.99998 12 3.99998C11.7878 3.99998 11.5843 4.08427 11.4343 4.2343C11.2843 4.38433 11.2 4.58781 11.2 4.79998V16.8C11.2 17.0122 11.2843 17.2156 11.4343 17.3657C11.5843 17.5157 11.7878 17.6 12 17.6C12.2122 17.6 12.4156 17.5157 12.5657 17.3657C12.7157 17.2156 12.8 17.0122 12.8 16.8V4.79998Z" fill="black"/>
</g>
<defs>
<clipPath id="clip0_1104_110">
<rect width="24" height="24" fill="white"/>
</clipPath>
</defs>
</svg>
