<svg width="40" height="40" viewBox="0 0 40 40" fill="none" xmlns="http://www.w3.org/2000/svg">
<path d="M19.9999 16.8499C21.7166 16.8499 23.1166 18.2499 23.1166 19.9999C23.1166 21.6666 21.7166 23.0833 19.9999 23.0833C18.2833 23.0833 16.8833 21.6666 16.8833 19.9999C16.8833 18.2499 18.2833 16.8499 19.9999 16.8499ZM12.2833 33.3333C13.3333 33.9666 15.6333 32.9999 18.2833 30.4999C17.4166 29.5166 16.5666 28.4499 15.7666 27.3333C14.4235 27.2047 13.0883 27.0045 11.7666 26.7333C10.9166 30.2999 11.2333 32.7499 12.2833 33.3333M13.4666 23.7666L12.9833 22.9166C12.7999 23.3999 12.6166 23.8833 12.4999 24.3499C12.9499 24.4499 13.4499 24.5333 13.9666 24.6166L13.4666 23.7666ZM24.3666 22.4999L25.7166 19.9999L24.3666 17.4999C23.8666 16.6166 23.3333 15.8333 22.8499 15.0499C21.9499 14.9999 20.9999 14.9999 19.9999 14.9999C18.9999 14.9999 18.0499 14.9999 17.1499 15.0499C16.6666 15.8333 16.1333 16.6166 15.6333 17.4999L14.2833 19.9999L15.6333 22.4999C16.1333 23.3833 16.6666 24.1666 17.1499 24.9499C18.0499 24.9999 18.9999 24.9999 19.9999 24.9999C20.9999 24.9999 21.9499 24.9999 22.8499 24.9499C23.3333 24.1666 23.8666 23.3833 24.3666 22.4999M19.9999 11.2999C19.6833 11.6666 19.3499 12.0499 19.0166 12.4999H20.9833C20.6499 12.0499 20.3166 11.6666 19.9999 11.2999ZM19.9999 28.6999C20.3166 28.3333 20.6499 27.9499 20.9833 27.4999H19.0166C19.3499 27.9499 19.6833 28.3333 19.9999 28.6999ZM27.6999 6.66661C26.6666 6.03328 24.3666 6.99995 21.7166 9.49995C22.5833 10.4833 23.4333 11.5499 24.2333 12.6666C25.5999 12.7999 26.9499 12.9999 28.2333 13.2666C29.0833 9.69995 28.7666 7.24995 27.6999 6.66661ZM26.5333 16.2333L27.0166 17.0833C27.1999 16.5999 27.3833 16.1166 27.4999 15.6499C27.0499 15.5499 26.5499 15.4666 26.0333 15.3833L26.5333 16.2333M28.9499 4.48328C31.3999 5.88328 31.6666 9.56661 30.6332 13.8666C34.8666 15.1166 37.9166 17.1833 37.9166 19.9999C37.9166 22.8166 34.8666 24.8833 30.6332 26.1333C31.6666 30.4333 31.3999 34.1166 28.9499 35.5166C26.5166 36.9166 23.1999 35.3166 19.9999 32.2666C16.7999 35.3166 13.4833 36.9166 11.0333 35.5166C8.59992 34.1166 8.33325 30.4333 9.36658 26.1333C5.13325 24.8833 2.08325 22.8166 2.08325 19.9999C2.08325 17.1833 5.13325 15.1166 9.36658 13.8666C8.33325 9.56661 8.59992 5.88328 11.0333 4.48328C13.4833 3.08328 16.7999 4.68328 19.9999 7.73328C23.1999 4.68328 26.5166 3.08328 28.9499 4.48328ZM28.4666 19.9999C29.0333 21.2499 29.5333 22.4999 29.9499 23.7666C33.4499 22.7166 35.4166 21.2166 35.4166 19.9999C35.4166 18.7833 33.4499 17.2833 29.9499 16.2333C29.5333 17.4999 29.0333 18.7499 28.4666 19.9999ZM11.5333 19.9999C10.9666 18.7499 10.4666 17.4999 10.0499 16.2333C6.54992 17.2833 4.58325 18.7833 4.58325 19.9999C4.58325 21.2166 6.54992 22.7166 10.0499 23.7666C10.4666 22.4999 10.9666 21.2499 11.5333 19.9999ZM26.5333 23.7666L26.0333 24.6166C26.5499 24.5333 27.0499 24.4499 27.4999 24.3499C27.3833 23.8833 27.1999 23.3999 27.0166 22.9166L26.5333 23.7666M21.7166 30.4999C24.3666 32.9999 26.6666 33.9666 27.6999 33.3333C28.7666 32.7499 29.0833 30.2999 28.2333 26.7333C26.9499 26.9999 25.5999 27.1999 24.2333 27.3333C23.4333 28.4499 22.5833 29.5166 21.7166 30.4999M13.4666 16.2333L13.9666 15.3833C13.4499 15.4666 12.9499 15.5499 12.4999 15.6499C12.6166 16.1166 12.7999 16.5999 12.9833 17.0833L13.4666 16.2333ZM18.2833 9.49995C15.6333 6.99995 13.3333 6.03328 12.2833 6.66661C11.2333 7.24995 10.9166 9.69995 11.7666 13.2666C13.0883 12.9954 14.4235 12.7951 15.7666 12.6666C16.5666 11.5499 17.4166 10.4833 18.2833 9.49995V9.49995Z" fill="#00CDF2"/>
</svg>
