<svg width="40" height="40" viewBox="0 0 40 40" fill="none" xmlns="http://www.w3.org/2000/svg">
<path d="M33.3334 31.15L21.1667 37.9C20.3334 38.3333 19.5001 38.3333 18.6667 37.9L6.66675 31.15L28.4167 9.23332L29.0001 9.06665C29.5001 9.06665 29.7834 9.28332 29.8334 9.73332L33.3334 31.15ZM15.5834 9.56665L8.00008 22.15L11.1667 2.23332C11.2167 1.78332 11.5001 1.56665 12.0001 1.56665C12.3334 1.56665 12.5501 1.66665 12.6667 1.98332L16.2501 8.56665L15.5834 9.56665ZM23.0834 11.6667L7.16675 27.65L19.2501 7.14998C19.4167 6.81665 19.6667 6.66665 20.0001 6.66665C20.3334 6.66665 20.5501 6.81665 20.6667 7.14998L23.0834 11.6667Z" fill="#F2C026"/>
</svg>
