<svg width="40" height="40" viewBox="0 0 40 40" fill="none" xmlns="http://www.w3.org/2000/svg">
<path fill-rule="evenodd" clip-rule="evenodd" d="M5.75588e-07 19.9972C0.000128818 16.5465 0.893187 13.1544 2.59234 10.151C4.29149 7.14756 6.73891 4.6349 9.69663 2.85734C12.6543 1.07979 16.0217 0.0978244 19.4713 0.00693869C22.9208 -0.083947 26.3352 0.719336 29.3824 2.33868C32.4297 3.95803 35.006 6.33833 36.8609 9.24813C38.7159 12.1579 39.7863 15.4982 39.9682 18.9442C40.15 22.3902 39.437 25.8246 37.8986 28.9134C36.3602 32.0023 34.0487 34.6405 31.1888 36.5715L13.084 11.2248C12.92 10.9949 12.6871 10.823 12.4191 10.734C12.1511 10.645 11.8618 10.6433 11.5928 10.7293C11.3238 10.8153 11.089 10.9845 10.9224 11.2126C10.7557 11.4406 10.6658 11.7156 10.6656 11.998V31.996H13.332V16.1576L28.8771 37.9207C25.8278 39.4317 22.4434 40.1396 19.0441 39.9772C15.6449 39.8149 12.3433 38.7878 9.45186 36.9932C6.56043 35.1985 4.17482 32.6956 2.52083 29.7215C0.866835 26.7474 -0.000815816 23.4003 5.75588e-07 19.9972V19.9972ZM26.664 26.6632V10.6648H29.3304V26.6632H26.664Z" fill="black"/>
</svg>
