<svg width="40" height="40" viewBox="0 0 40 40" fill="none" xmlns="http://www.w3.org/2000/svg">
<path d="M19.9999 10C15.5499 10 12.7833 12.2167 11.6666 16.6667C13.3333 14.45 15.2833 13.6167 17.4999 14.1667C18.7666 14.4833 19.6833 15.4 20.6833 16.4167C22.3166 18.0833 24.1666 20 28.3333 20C32.7833 20 35.5499 17.7833 36.6666 13.3333C34.9999 15.55 33.0499 16.3833 30.8333 15.8333C29.5666 15.5167 28.6666 14.6 27.6499 13.5833C26.0166 11.9167 24.1666 10 19.9999 10ZM11.6666 20C7.21659 20 4.44992 22.2167 3.33325 26.6667C4.99992 24.45 6.94992 23.6167 9.16659 24.1667C10.4333 24.4833 11.3333 25.4 12.3499 26.4167C13.9833 28.0833 15.8333 30 19.9999 30C24.4499 30 27.2166 27.7833 28.3333 23.3333C26.6666 25.55 24.7166 26.3833 22.4999 25.8333C21.2333 25.5167 20.3333 24.6 19.3166 23.5833C17.6833 21.9167 15.8333 20 11.6666 20Z" fill="#06ADC9"/>
</svg>
