<svg width="24" height="24" viewBox="0 0 24 24" fill="none" xmlns="http://www.w3.org/2000/svg">
<path fill-rule="evenodd" clip-rule="evenodd" d="M3.45353e-07 11.9983C7.72908e-05 9.92788 0.535912 7.89267 1.5554 6.0906C2.57489 4.28854 4.04335 2.78094 5.81798 1.71441C7.59261 0.647872 9.61302 0.0586947 11.6828 0.00416321C13.7525 -0.0503682 15.8011 0.431602 17.6295 1.40321C19.4578 2.37482 21.0036 3.803 22.1166 5.54888C23.2295 7.29476 23.8718 9.29893 23.9809 11.3665C24.09 13.4341 23.6622 15.4947 22.7392 17.348C21.8161 19.2014 20.4292 20.7843 18.7133 21.9429L7.8504 6.73487C7.75198 6.59694 7.61229 6.49383 7.45148 6.4404C7.29068 6.38697 7.11706 6.38599 6.95566 6.4376C6.79426 6.4892 6.65341 6.59073 6.55343 6.72754C6.45345 6.86435 6.3995 7.02937 6.39935 7.19882V19.1976H7.99919V9.69457L17.3262 22.7524C15.4967 23.659 13.466 24.0837 11.4265 23.9863C9.38693 23.8889 7.40598 23.2727 5.67112 22.1959C3.93626 21.1191 2.50489 19.6174 1.5125 17.8329C0.520101 16.0484 -0.00048949 14.0402 3.45353e-07 11.9983V11.9983ZM15.9984 15.9979V6.39891H17.5982V15.9979H15.9984Z" fill="black"/>
</svg>
