<svg width="40" height="40" viewBox="0 0 40 40" fill="none" xmlns="http://www.w3.org/2000/svg">
<g clip-path="url(#clip0_1104_99)">
<path d="M33.715 26.3217C33.8837 26.2247 34.024 26.085 34.1217 25.9167C34.2195 25.7481 34.2713 25.5566 34.2717 25.3617L34.2917 18.9317C34.2921 18.7367 34.3438 18.5453 34.4417 18.3767C34.5398 18.2081 34.6807 18.0685 34.85 17.9717L38.3333 15.9667C38.5023 15.87 38.6937 15.8195 38.8883 15.82C39.0833 15.8205 39.2747 15.8722 39.4433 15.97C39.612 16.0671 39.7522 16.2067 39.85 16.375C39.9473 16.5438 39.9985 16.7352 39.9983 16.93V28.62C39.9982 28.8155 39.9465 29.0075 39.8485 29.1766C39.7504 29.3457 39.6096 29.486 39.44 29.5833L26.285 37.14C26.1171 37.2362 25.9269 37.2868 25.7333 37.2868C25.5398 37.2868 25.3496 37.2362 25.1817 37.14L14.8583 31.2367C14.6882 31.1396 14.5468 30.9993 14.4483 30.83C14.35 30.6604 14.2982 30.4678 14.2983 30.2717V24.3767C14.2983 24.37 14.305 24.3667 14.3117 24.37C14.3183 24.3733 14.325 24.37 14.325 24.3617V24.355C14.325 24.35 14.3283 24.3467 14.3317 24.3433L22.835 19.46C22.8417 19.455 22.8383 19.4433 22.83 19.4433C22.8287 19.4433 22.8274 19.443 22.8263 19.4425C22.8251 19.4419 22.8241 19.441 22.8233 19.44C22.8226 19.4391 22.8221 19.438 22.8218 19.4369C22.8215 19.4357 22.8215 19.4345 22.8217 19.4333L22.8383 13.655C22.8391 13.4593 22.7882 13.2668 22.6908 13.0971C22.5933 12.9274 22.4528 12.7863 22.2833 12.6883C22.1143 12.5908 21.9226 12.5394 21.7275 12.5394C21.5324 12.5394 21.3407 12.5908 21.1717 12.6883L14.8533 16.3317C14.6847 16.4286 14.4937 16.4796 14.2992 16.4796C14.1047 16.4796 13.9136 16.4286 13.745 16.3317L7.405 12.6817C7.23615 12.5848 7.04481 12.5339 6.85013 12.5342C6.65545 12.5344 6.46425 12.5858 6.29567 12.6832C6.12709 12.7806 5.98703 12.9205 5.88951 13.089C5.792 13.2575 5.74044 13.4487 5.74 13.6433V24.0883C5.74007 24.2831 5.68899 24.4744 5.59188 24.6431C5.49478 24.8119 5.35504 24.9522 5.18667 25.05C5.01854 25.1476 4.82773 25.1993 4.63334 25.2C4.43869 25.2006 4.2473 25.15 4.07834 25.0533L0.560002 23.0417C0.389899 22.9446 0.24846 22.8043 0.150002 22.635C0.0513518 22.4649 -0.000408339 22.2717 2.42592e-06 22.075L0.0316691 3.82001C0.0322735 3.62557 0.0838655 3.43469 0.181295 3.26643C0.278726 3.09816 0.418585 2.95839 0.586915 2.86107C0.755245 2.76375 0.946157 2.71228 1.14059 2.7118C1.33503 2.71132 1.5262 2.76185 1.695 2.85834L13.745 9.78001C13.9136 9.87696 14.1047 9.92798 14.2992 9.92798C14.4937 9.92798 14.6847 9.87696 14.8533 9.78001L26.9 2.85834C27.0689 2.76163 27.2603 2.71105 27.455 2.71168C27.65 2.71207 27.8414 2.7638 28.01 2.86168C28.1789 2.95921 28.3191 3.09946 28.4167 3.26834C28.5133 3.43731 28.5639 3.62869 28.5633 3.82334V22.0833C28.5633 22.2783 28.5133 22.47 28.415 22.64C28.317 22.8091 28.1762 22.9494 28.0067 23.0467L21.6983 26.68C21.5286 26.7778 21.3878 26.9186 21.29 27.0883C21.1924 27.2576 21.1413 27.4496 21.1417 27.645C21.1418 27.8405 21.1936 28.0325 21.2917 28.2017C21.3905 28.3712 21.5326 28.5116 21.7033 28.6083L25.1833 30.59C25.3511 30.685 25.5406 30.735 25.7333 30.735C25.9276 30.7348 26.1184 30.6836 26.2867 30.5867L33.715 26.32V26.3217ZM34.445 9.94168C34.4448 10.1378 34.4966 10.3304 34.595 10.5C34.6943 10.6698 34.837 10.8101 35.0083 10.9067C35.1791 11.0032 35.3723 11.0527 35.5685 11.0504C35.7646 11.0481 35.9566 10.9939 36.125 10.8933L39.46 8.89334C39.6244 8.79472 39.7605 8.65519 39.855 8.48834C39.9499 8.32118 39.9999 8.13225 40 7.94001V3.86668C39.9996 3.67044 39.9473 3.4778 39.8483 3.30834C39.7491 3.13887 39.6068 2.99869 39.4358 2.90208C39.2649 2.80548 39.0714 2.75588 38.875 2.75834C38.6789 2.76054 38.4868 2.81459 38.3183 2.91501L34.985 4.91501C34.82 5.0134 34.6833 5.15295 34.5883 5.32001C34.4941 5.48736 34.4447 5.67626 34.445 5.86834V9.94334V9.94168Z" fill="#0079F2"/>
</g>
<defs>
<clipPath id="clip0_1104_99">
<rect width="40" height="40" fill="white"/>
</clipPath>
</defs>
</svg>
